<svg width="32" height="32" viewBox="0 0 32 32" fill="none" xmlns="http://www.w3.org/2000/svg">
<g clip-path="url(#clip0_33_565)">
<g clip-path="url(#clip1_33_565)">
<path d="M25.8065 24.8945V29.8147L29.9061 27.3549L25.8065 24.8945ZM26.8387 26.7185L27.9004 27.3549L26.8387 27.9912V26.7185Z" fill="url(#paint0_linear_33_565)"/>
<path d="M29.9355 13.4194H24.7742V14.4516H29.9355V13.4194Z" fill="url(#paint1_linear_33_565)"/>
<path d="M29.9355 17.5484H24.7742V18.5807H29.9355V17.5484Z" fill="url(#paint2_linear_33_565)"/>
<path d="M23.7419 21.6774H30.9677C31.537 21.6774 32 21.2145 32 20.6452V12.3871C32 11.8178 31.537 11.3548 30.9677 11.3548H23.7419C23.1726 11.3548 22.7097 11.8178 22.7097 12.3871V16H19.6129V9.29032H21.6774C22.2467 9.29032 22.7097 8.82735 22.7097 8.25806V5.16129H24.7742V6.85265L26.8387 10.2932L28.9032 6.85265V2.06452C28.9032 0.925935 27.9773 0 26.8387 0C25.7001 0 24.7742 0.925935 24.7742 2.06452V4.12903H22.7097C22.1404 4.12903 21.6774 4.592 21.6774 5.16129V8.25806H19.6129V2.58065C19.6129 1.15768 18.4552 0 17.0323 0H2.58065C1.15768 0 0 1.15768 0 2.58065V29.4194C0 30.8423 1.15768 32 2.58065 32H17.0323C18.4552 32 19.6129 30.8423 19.6129 29.4194V23.7419H20.6452V26.8387C20.6452 27.408 21.1081 27.871 21.6774 27.871H22.7401C22.9977 30.1899 24.9677 32 27.3548 32C29.9164 32 32 29.9164 32 27.3548C32 24.7933 29.9164 22.7097 27.3548 22.7097C24.9677 22.7097 22.9977 24.5197 22.7401 26.8387H21.6774V23.7419C21.6774 23.1726 21.2145 22.7097 20.6452 22.7097H19.6129V17.0323H22.7097V20.6452C22.7097 21.2145 23.1726 21.6774 23.7419 21.6774ZM23.7419 12.3871H30.9677L30.9688 20.6452H23.7419V12.3871ZM25.8065 6.19355V3.09677H27.871V6.19355H25.8065ZM26.2018 7.22581H27.4756L26.8387 8.28748L26.2018 7.22581ZM26.8387 1.03226C27.408 1.03226 27.871 1.49523 27.871 2.06452H25.8065C25.8065 1.49523 26.2694 1.03226 26.8387 1.03226ZM18.5806 29.4194C18.5806 30.273 17.8859 30.9677 17.0323 30.9677H2.58065C1.72697 30.9677 1.03226 30.273 1.03226 29.4194V2.58065C1.03226 1.72697 1.72697 1.03226 2.58065 1.03226H17.0323C17.8859 1.03226 18.5806 1.72697 18.5806 2.58065V29.4194ZM27.3548 23.7419C29.3466 23.7419 30.9677 25.3631 30.9677 27.3548C30.9677 29.3466 29.3466 30.9677 27.3548 30.9677C25.3631 30.9677 23.7419 29.3466 23.7419 27.3548C23.7419 25.3631 25.3631 23.7419 27.3548 23.7419Z" fill="url(#paint3_linear_33_565)"/>
<path d="M26.8387 15.4839H24.7742V16.5161H26.8387V15.4839Z" fill="url(#paint4_linear_33_565)"/>
<path d="M29.9355 15.4839H27.871V16.5161H29.9355V15.4839Z" fill="url(#paint5_linear_33_565)"/>
<path d="M5.67743 13.4193V15.4839C5.67743 16.6224 6.60337 17.5484 7.74195 17.5484H9.80646V18.6756C9.50561 18.782 9.24496 18.9787 9.06019 19.2389C8.87541 19.499 8.77553 19.8099 8.77421 20.129C8.77421 20.9827 9.46892 21.6774 10.3226 21.6774C11.1763 21.6774 11.871 20.9827 11.871 20.129C11.8697 19.8099 11.7698 19.499 11.585 19.2389C11.4002 18.9787 11.1396 18.782 10.8387 18.6756V17.5484C11.9773 17.5484 12.9032 16.6224 12.9032 15.4839V13.4193C13.4725 13.4193 13.9355 12.9564 13.9355 12.3871V11.3548C13.9355 10.7855 13.4725 10.3226 12.9032 10.3226H10.8387V9.80644C10.8387 8.95277 10.144 8.25806 9.29033 8.25806C8.43666 8.25806 7.74195 8.95277 7.74195 9.80644V10.3226H5.67743C5.10814 10.3226 4.64517 10.7855 4.64517 11.3548V12.3871C4.64517 12.9564 5.10814 13.4193 5.67743 13.4193ZM10.3226 20.6452C10.1857 20.6452 10.0544 20.5908 9.95763 20.494C9.86084 20.3972 9.80646 20.2659 9.80646 20.129C9.80646 19.9921 9.86084 19.8609 9.95763 19.7641C10.0544 19.6673 10.1857 19.6129 10.3226 19.6129C10.4595 19.6129 10.5908 19.6673 10.6876 19.7641C10.7843 19.8609 10.8387 19.9921 10.8387 20.129C10.8387 20.2659 10.7843 20.3972 10.6876 20.494C10.5908 20.5908 10.4595 20.6452 10.3226 20.6452ZM7.74195 16.5161C7.17266 16.5161 6.70969 16.0532 6.70969 15.4839V13.4193H9.80646V16.5161H7.74195ZM11.871 15.4839C11.871 16.0532 11.408 16.5161 10.8387 16.5161V13.4193H11.871V15.4839ZM12.9032 11.3548L12.9043 12.3871H10.8387V11.3548H12.9032ZM8.77421 9.80644C8.77421 9.66956 8.82858 9.53828 8.92538 9.44149C9.02217 9.34469 9.15345 9.29031 9.29033 9.29031C9.42722 9.29031 9.5585 9.34469 9.65529 9.44149C9.75209 9.53828 9.80646 9.66956 9.80646 9.80644V10.3226H8.77421V9.80644ZM5.67743 11.3548H9.80646V12.3871H5.67743V11.3548Z" fill="url(#paint6_linear_33_565)"/>
<path d="M5.67742 24.7742C4.82374 24.7742 4.12903 25.4689 4.12903 26.3226C4.12903 27.1762 4.82374 27.8709 5.67742 27.8709C6.53109 27.8709 7.2258 27.1762 7.2258 26.3226C7.2258 25.4689 6.53109 24.7742 5.67742 24.7742ZM5.67742 26.8387C5.54053 26.8387 5.40925 26.7843 5.31246 26.6875C5.21566 26.5907 5.16129 26.4594 5.16129 26.3226C5.16129 26.1857 5.21566 26.0544 5.31246 25.9576C5.40925 25.8608 5.54053 25.8064 5.67742 25.8064C5.8143 25.8064 5.94558 25.8608 6.04237 25.9576C6.13917 26.0544 6.19354 26.1857 6.19354 26.3226C6.19354 26.4594 6.13917 26.5907 6.04237 26.6875C5.94558 26.7843 5.8143 26.8387 5.67742 26.8387Z" fill="url(#paint7_linear_33_565)"/>
<path d="M9.80644 24.7742C8.95277 24.7742 8.25806 25.4689 8.25806 26.3226C8.25806 27.1762 8.95277 27.8709 9.80644 27.8709C10.6601 27.8709 11.3548 27.1762 11.3548 26.3226C11.3548 25.4689 10.6601 24.7742 9.80644 24.7742ZM9.80644 26.8387C9.66956 26.8387 9.53828 26.7843 9.44149 26.6875C9.34469 26.5907 9.29031 26.4594 9.29031 26.3226C9.29031 26.1857 9.34469 26.0544 9.44149 25.9576C9.53828 25.8608 9.66956 25.8064 9.80644 25.8064C9.94333 25.8064 10.0746 25.8608 10.1714 25.9576C10.2682 26.0544 10.3226 26.1857 10.3226 26.3226C10.3226 26.4594 10.2682 26.5907 10.1714 26.6875C10.0746 26.7843 9.94333 26.8387 9.80644 26.8387Z" fill="url(#paint8_linear_33_565)"/>
<path d="M13.9355 24.7742C13.0818 24.7742 12.3871 25.4689 12.3871 26.3226C12.3871 27.1762 13.0818 27.8709 13.9355 27.8709C14.7891 27.8709 15.4839 27.1762 15.4839 26.3226C15.4839 25.4689 14.7891 24.7742 13.9355 24.7742ZM13.9355 26.8387C13.7986 26.8387 13.6673 26.7843 13.5705 26.6875C13.4737 26.5907 13.4193 26.4594 13.4193 26.3226C13.4193 26.1857 13.4737 26.0544 13.5705 25.9576C13.6673 25.8608 13.7986 25.8064 13.9355 25.8064C14.0724 25.8064 14.2036 25.8608 14.3004 25.9576C14.3972 26.0544 14.4516 26.1857 14.4516 26.3226C14.4516 26.4594 14.3972 26.5907 14.3004 26.6875C14.2036 26.7843 14.0724 26.8387 13.9355 26.8387Z" fill="url(#paint9_linear_33_565)"/>
<path d="M12.3871 4.12903H11.3548V5.16129H12.3871V4.12903Z" fill="url(#paint10_linear_33_565)"/>
<path d="M10.3226 4.12903H7.2258V5.16129H10.3226V4.12903Z" fill="url(#paint11_linear_33_565)"/>
<path d="M16.5161 2.06451H3.09677C2.52748 2.06451 2.06451 2.52748 2.06451 3.09677V28.9032C2.06451 29.4725 2.52748 29.9355 3.09677 29.9355H16.5161C17.0854 29.9355 17.5484 29.4725 17.5484 28.9032V3.09677C17.5484 2.52748 17.0854 2.06451 16.5161 2.06451ZM16.5161 3.09677V6.19355H3.09677V3.09677H16.5161ZM16.5161 7.2258L16.5166 22.7097H3.09677V7.2258H16.5161ZM3.09677 28.9032V23.7419H16.5172V28.9032H3.09677Z" fill="url(#paint12_linear_33_565)"/>
</g>
</g>
<defs>
<linearGradient id="paint0_linear_33_565" x1="27.8563" y1="24.8945" x2="27.8563" y2="29.8147" gradientUnits="userSpaceOnUse">
<stop stop-color="#0F3054"/>
<stop offset="0.5" stop-color="#3B8DCB"/>
<stop offset="1" stop-color="#0F3054"/>
</linearGradient>
<linearGradient id="paint1_linear_33_565" x1="27.3548" y1="13.4194" x2="27.3548" y2="14.4516" gradientUnits="userSpaceOnUse">
<stop stop-color="#0F3054"/>
<stop offset="0.5" stop-color="#3B8DCB"/>
<stop offset="1" stop-color="#0F3054"/>
</linearGradient>
<linearGradient id="paint2_linear_33_565" x1="27.3548" y1="17.5484" x2="27.3548" y2="18.5807" gradientUnits="userSpaceOnUse">
<stop stop-color="#0F3054"/>
<stop offset="0.5" stop-color="#3B8DCB"/>
<stop offset="1" stop-color="#0F3054"/>
</linearGradient>
<linearGradient id="paint3_linear_33_565" x1="16" y1="0" x2="16" y2="32" gradientUnits="userSpaceOnUse">
<stop stop-color="#0F3054"/>
<stop offset="0.5" stop-color="#3B8DCB"/>
<stop offset="1" stop-color="#0F3054"/>
</linearGradient>
<linearGradient id="paint4_linear_33_565" x1="25.8065" y1="15.4839" x2="25.8065" y2="16.5161" gradientUnits="userSpaceOnUse">
<stop stop-color="#0F3054"/>
<stop offset="0.5" stop-color="#3B8DCB"/>
<stop offset="1" stop-color="#0F3054"/>
</linearGradient>
<linearGradient id="paint5_linear_33_565" x1="28.9032" y1="15.4839" x2="28.9032" y2="16.5161" gradientUnits="userSpaceOnUse">
<stop stop-color="#0F3054"/>
<stop offset="0.5" stop-color="#3B8DCB"/>
<stop offset="1" stop-color="#0F3054"/>
</linearGradient>
<linearGradient id="paint6_linear_33_565" x1="9.29033" y1="8.25806" x2="9.29033" y2="21.6774" gradientUnits="userSpaceOnUse">
<stop stop-color="#0F3054"/>
<stop offset="0.5" stop-color="#3B8DCB"/>
<stop offset="1" stop-color="#0F3054"/>
</linearGradient>
<linearGradient id="paint7_linear_33_565" x1="5.67742" y1="24.7742" x2="5.67742" y2="27.8709" gradientUnits="userSpaceOnUse">
<stop stop-color="#0F3054"/>
<stop offset="0.5" stop-color="#3B8DCB"/>
<stop offset="1" stop-color="#0F3054"/>
</linearGradient>
<linearGradient id="paint8_linear_33_565" x1="9.80644" y1="24.7742" x2="9.80644" y2="27.8709" gradientUnits="userSpaceOnUse">
<stop stop-color="#0F3054"/>
<stop offset="0.5" stop-color="#3B8DCB"/>
<stop offset="1" stop-color="#0F3054"/>
</linearGradient>
<linearGradient id="paint9_linear_33_565" x1="13.9355" y1="24.7742" x2="13.9355" y2="27.8709" gradientUnits="userSpaceOnUse">
<stop stop-color="#0F3054"/>
<stop offset="0.5" stop-color="#3B8DCB"/>
<stop offset="1" stop-color="#0F3054"/>
</linearGradient>
<linearGradient id="paint10_linear_33_565" x1="11.871" y1="4.12903" x2="11.871" y2="5.16129" gradientUnits="userSpaceOnUse">
<stop stop-color="#0F3054"/>
<stop offset="0.5" stop-color="#3B8DCB"/>
<stop offset="1" stop-color="#0F3054"/>
</linearGradient>
<linearGradient id="paint11_linear_33_565" x1="8.77419" y1="4.12903" x2="8.77419" y2="5.16129" gradientUnits="userSpaceOnUse">
<stop stop-color="#0F3054"/>
<stop offset="0.5" stop-color="#3B8DCB"/>
<stop offset="1" stop-color="#0F3054"/>
</linearGradient>
<linearGradient id="paint12_linear_33_565" x1="9.80645" y1="2.06451" x2="9.80645" y2="29.9355" gradientUnits="userSpaceOnUse">
<stop stop-color="#0F3054"/>
<stop offset="0.5" stop-color="#3B8DCB"/>
<stop offset="1" stop-color="#0F3054"/>
</linearGradient>
<clipPath id="clip0_33_565">
<rect width="32" height="32" fill="white"/>
</clipPath>
<clipPath id="clip1_33_565">
<rect width="32" height="32" fill="white"/>
</clipPath>
</defs>
</svg>
